<svg xmlns="http://www.w3.org/2000/svg" viewBox="0 0 512 512">
  <defs>
    <linearGradient id="goldGradient" x1="0%" y1="0%" x2="100%" y2="100%">
      <stop offset="0%" style="stop-color:#FFD700;stop-opacity:1" />
      <stop offset="100%" style="stop-color:#B8860B;stop-opacity:1" />
    </linearGradient>
    <linearGradient id="darkGradient" x1="0%" y1="0%" x2="100%" y2="100%">
      <stop offset="0%" style="stop-color:#333333;stop-opacity:1" />
      <stop offset="100%" style="stop-color:#111111;stop-opacity:1" />
    </linearGradient>
  </defs>
  <!-- Background Circle for modern look -->
  <circle cx="256" cy="256" r="240" fill="url(#darkGradient)" />
  
  <!-- Clapperboard Body -->
  <path d="M128 192h256v192H128z" fill="#222" />
  <path d="M128 192h256v48H128z" fill="url(#goldGradient)" />
  
  <!-- Clapperboard Top (Open) -->
  <g transform="rotate(-20 128 192)">
    <path d="M128 144h256v48H128z" fill="#333" />
    <path d="M160 144l40 48h-40zM240 144l40 48h-40zM320 144l40 48h-40z" fill="white" opacity="0.2" />
  </g>
  
  <!-- Stripes on the body -->
  <path d="M160 192l40 48h-40zM240 192l40 48h-40zM320 192l40 48h-40z" fill="white" opacity="0.2" />
  
  <!-- Star Detail -->
  <path d="M256 280l12 24 28 4-20 20 5 28-25-13-25 13 5-28-20-20 28-4z" fill="url(#goldGradient)" />
</svg>
